<svg width="390" height="29" viewBox="0 0 390 29" fill="none" xmlns="http://www.w3.org/2000/svg">
<path d="M9.61227 28.28C7.55893 28.28 5.9606 27.6967 4.81727 26.53C3.67393 25.34 3.10227 23.7067 3.10227 21.63V14.805H0.862266V10.465H3.62727L6.88227 3.85H10.4173V10.465H14.4773V14.805H10.4173V20.755C10.4173 21.3383 10.6039 21.7933 10.9773 22.12C11.3506 22.4467 11.8756 22.61 12.5523 22.61C13.1823 22.61 13.7539 22.47 14.2673 22.19L14.5473 27.09C13.9639 27.44 13.2056 27.7317 12.2723 27.965C11.3623 28.175 10.4756 28.28 9.61227 28.28ZM24.5504 28.28C23.0338 28.28 21.6104 27.8833 20.2804 27.09C18.9738 26.2733 17.9238 25.1767 17.1304 23.8C16.3371 22.4 15.9404 20.8483 15.9404 19.145C15.9404 17.465 16.3371 15.9483 17.1304 14.595C17.9238 13.2183 18.9854 12.145 20.3154 11.375C21.6454 10.605 23.0571 10.22 24.5504 10.22C25.7638 10.22 26.8838 10.5583 27.9104 11.235C28.9604 11.9117 29.7538 12.9267 30.2904 14.28V10.22H37.6404V28H30.2904V24.745C29.1238 27.1017 27.2104 28.28 24.5504 28.28ZM26.8254 22.75C27.7588 22.75 28.5521 22.4233 29.2054 21.77C29.8821 21.0933 30.2438 20.3 30.2904 19.39V19.11C30.2438 18.1767 29.8704 17.3833 29.1704 16.73C28.4938 16.0767 27.7121 15.75 26.8254 15.75C25.8454 15.75 25.0054 16.1 24.3054 16.8C23.6288 17.4767 23.2904 18.2933 23.2904 19.25C23.2904 20.23 23.6404 21.0583 24.3404 21.735C25.0404 22.4117 25.8688 22.75 26.8254 22.75ZM41.1855 10.71H48.2205V14.28C49.0139 12.9033 49.9122 11.8883 50.9155 11.235C51.9422 10.5583 53.1555 10.22 54.5555 10.22C55.9322 10.22 57.1222 10.57 58.1255 11.27C59.1522 11.9467 59.9222 12.8683 60.4355 14.035C61.9289 11.4917 64.0989 10.22 66.9455 10.22C68.2989 10.22 69.4772 10.5817 70.4805 11.305C71.5072 12.0283 72.3005 13.0783 72.8605 14.455C73.4205 15.8083 73.7005 17.4067 73.7005 19.25V28H66.3155V19.25C66.3155 18.06 66.1055 17.1617 65.6855 16.555C65.2889 15.9483 64.7289 15.645 64.0055 15.645C63.2122 15.645 62.5239 15.9833 61.9405 16.66C61.3805 17.3367 61.1005 18.1533 61.1005 19.11V28H53.7855V19.25C53.7855 18.06 53.5755 17.1617 53.1555 16.555C52.7589 15.9483 52.1872 15.645 51.4405 15.645C50.6472 15.645 49.9705 15.9833 49.4105 16.66C48.8505 17.3367 48.5705 18.1533 48.5705 19.11V28H41.1855V10.71ZM84.8434 28.28C83.3267 28.28 81.9034 27.8833 80.5734 27.09C79.2667 26.2733 78.2167 25.1767 77.4234 23.8C76.6301 22.4 76.2334 20.8483 76.2334 19.145C76.2334 17.465 76.6301 15.9483 77.4234 14.595C78.2167 13.2183 79.2784 12.145 80.6084 11.375C81.9384 10.605 83.3501 10.22 84.8434 10.22C86.0567 10.22 87.1767 10.5583 88.2034 11.235C89.2534 11.9117 90.0467 12.9267 90.5834 14.28V10.22H97.9334V28H90.5834V24.745C89.4167 27.1017 87.5034 28.28 84.8434 28.28ZM87.1184 22.75C88.0517 22.75 88.8451 22.4233 89.4984 21.77C90.1751 21.0933 90.5367 20.3 90.5834 19.39V19.11C90.5367 18.1767 90.1634 17.3833 89.4634 16.73C88.7867 16.0767 88.0051 15.75 87.1184 15.75C86.1384 15.75 85.2984 16.1 84.5984 16.8C83.9217 17.4767 83.5834 18.2933 83.5834 19.25C83.5834 20.23 83.9334 21.0583 84.6334 21.735C85.3334 22.4117 86.1617 22.75 87.1184 22.75ZM107.639 28.28C105.655 28.28 104.115 27.6617 103.019 26.425C101.945 25.165 101.409 23.45 101.409 21.28V4.935L108.794 3.85V20.755C108.794 21.4083 108.945 21.8867 109.249 22.19C109.575 22.47 110.135 22.61 110.929 22.61C111.512 22.61 112.084 22.47 112.644 22.19L112.889 27.09C111.325 27.8833 109.575 28.28 107.639 28.28ZM123.771 28.28C121.834 28.28 120.108 27.895 118.591 27.125C117.098 26.3317 115.931 25.2583 115.091 23.905C114.251 22.5283 113.831 20.9767 113.831 19.25C113.831 17.4767 114.263 15.9017 115.126 14.525C115.989 13.1483 117.156 12.0867 118.626 11.34C120.096 10.5933 121.729 10.22 123.526 10.22C125.253 10.22 126.723 10.605 127.936 11.375C129.173 12.1217 130.094 13.1483 130.701 14.455C131.308 15.7383 131.611 17.185 131.611 18.795C131.611 19.215 131.588 19.5183 131.541 19.705L121.041 21.07C121.321 21.8867 121.776 22.4817 122.406 22.855C123.036 23.205 123.864 23.38 124.891 23.38C126.478 23.38 128.193 22.9717 130.036 22.155L130.911 26.845C128.741 27.8017 126.361 28.28 123.771 28.28ZM126.186 16.66C125.813 15.19 124.926 14.455 123.526 14.455C122.686 14.455 122.021 14.77 121.531 15.4C121.041 16.03 120.784 16.8467 120.761 17.85L126.186 16.66ZM140.209 28.28C137.759 28.28 135.613 27.9183 133.769 27.195L134.574 23.03C136.254 23.6367 137.888 23.94 139.474 23.94C140.641 23.94 141.224 23.6133 141.224 22.96C141.224 22.6333 141.049 22.365 140.699 22.155C140.373 21.945 139.743 21.7583 138.809 21.595C136.873 21.2217 135.473 20.5917 134.609 19.705C133.769 18.8183 133.349 17.5583 133.349 15.925C133.443 14.0817 134.178 12.67 135.554 11.69C136.931 10.71 138.809 10.22 141.189 10.22C142.403 10.22 143.441 10.3017 144.304 10.465C145.191 10.605 145.996 10.85 146.719 11.2L145.984 15.365C145.308 15.1083 144.561 14.91 143.744 14.77C142.951 14.63 142.286 14.56 141.749 14.56C140.956 14.56 140.408 14.6417 140.104 14.805C139.801 14.9683 139.649 15.19 139.649 15.47C139.649 15.9833 140.233 16.345 141.399 16.555C143.523 16.9283 145.109 17.5817 146.159 18.515C147.209 19.4483 147.734 20.72 147.734 22.33C147.734 24.1733 147.081 25.6317 145.774 26.705C144.491 27.755 142.636 28.28 140.209 28.28ZM347.755 28.21C346.519 28.21 345.55 27.8717 344.85 27.195C344.15 26.5183 343.8 25.6667 343.8 24.64C343.8 23.59 344.162 22.7383 344.885 22.085C345.609 21.4317 346.565 21.105 347.755 21.105C348.922 21.105 349.867 21.455 350.59 22.155C351.314 22.8317 351.675 23.66 351.675 24.64C351.675 25.7367 351.337 26.6117 350.66 27.265C349.984 27.895 349.015 28.21 347.755 28.21ZM362.951 28.28C361.084 28.28 359.427 27.9067 357.981 27.16C356.557 26.39 355.437 25.3167 354.621 23.94C353.827 22.5633 353.431 21 353.431 19.25C353.431 17.57 353.851 16.0417 354.691 14.665C355.531 13.2883 356.674 12.2033 358.121 11.41C359.567 10.6167 361.177 10.22 362.951 10.22C365.214 10.22 366.999 10.6867 368.306 11.62L367.641 16.275C366.311 15.8783 365.214 15.68 364.351 15.68C363.231 15.68 362.344 16.0067 361.691 16.66C361.037 17.29 360.711 18.1533 360.711 19.25C360.711 20.3467 361.037 21.2217 361.691 21.875C362.344 22.5283 363.207 22.855 364.281 22.855C365.214 22.855 366.311 22.6567 367.571 22.26L368.236 27.16C367.442 27.5567 366.637 27.8367 365.821 28C365.004 28.1867 364.047 28.28 362.951 28.28ZM379.814 28.28C377.854 28.28 376.104 27.895 374.564 27.125C373.048 26.355 371.858 25.2933 370.994 23.94C370.154 22.5633 369.734 20.9883 369.734 19.215C369.734 17.4417 370.166 15.8783 371.029 14.525C371.893 13.1483 373.083 12.0867 374.599 11.34C376.139 10.5933 377.889 10.22 379.849 10.22C381.833 10.22 383.583 10.605 385.099 11.375C386.639 12.1217 387.829 13.1717 388.669 14.525C389.509 15.8783 389.929 17.4417 389.929 19.215C389.929 21.0117 389.498 22.5983 388.634 23.975C387.794 25.3283 386.604 26.39 385.064 27.16C383.548 27.9067 381.798 28.28 379.814 28.28ZM379.884 23.03C380.841 23.03 381.623 22.68 382.229 21.98C382.859 21.2567 383.174 20.335 383.174 19.215C383.174 18.095 382.859 17.185 382.229 16.485C381.623 15.7617 380.841 15.4 379.884 15.4C378.928 15.4 378.134 15.7617 377.504 16.485C376.898 17.185 376.594 18.095 376.594 19.215C376.594 20.335 376.898 21.2567 377.504 21.98C378.134 22.68 378.928 23.03 379.884 23.03Z" fill="#FCFEE2"/>
<path d="M157.986 28.28C155.933 28.28 154.335 27.6967 153.191 26.53C152.048 25.34 151.476 23.7067 151.476 21.63V14.805H149.236V10.465H152.001L155.256 3.85H158.791V10.465H162.851V14.805H158.791V20.755C158.791 21.3383 158.978 21.7933 159.351 22.12C159.725 22.4467 160.25 22.61 160.926 22.61C161.556 22.61 162.128 22.47 162.641 22.19L162.921 27.09C162.338 27.44 161.58 27.7317 160.646 27.965C159.736 28.175 158.85 28.28 157.986 28.28ZM174.394 28.28C172.434 28.28 170.684 27.895 169.144 27.125C167.628 26.355 166.438 25.2933 165.574 23.94C164.734 22.5633 164.314 20.9883 164.314 19.215C164.314 17.4417 164.746 15.8783 165.609 14.525C166.473 13.1483 167.663 12.0867 169.179 11.34C170.719 10.5933 172.469 10.22 174.429 10.22C176.413 10.22 178.163 10.605 179.679 11.375C181.219 12.1217 182.409 13.1717 183.249 14.525C184.089 15.8783 184.509 17.4417 184.509 19.215C184.509 21.0117 184.078 22.5983 183.214 23.975C182.374 25.3283 181.184 26.39 179.644 27.16C178.128 27.9067 176.378 28.28 174.394 28.28ZM174.464 23.03C175.421 23.03 176.203 22.68 176.809 21.98C177.439 21.2567 177.754 20.335 177.754 19.215C177.754 18.095 177.439 17.185 176.809 16.485C176.203 15.7617 175.421 15.4 174.464 15.4C173.508 15.4 172.714 15.7617 172.084 16.485C171.478 17.185 171.174 18.095 171.174 19.215C171.174 20.335 171.478 21.2567 172.084 21.98C172.714 22.68 173.508 23.03 174.464 23.03ZM193.293 28.28C191.309 28.28 189.769 27.6617 188.673 26.425C187.599 25.165 187.063 23.45 187.063 21.28V4.935L194.448 3.85V20.755C194.448 21.4083 194.599 21.8867 194.903 22.19C195.229 22.47 195.789 22.61 196.583 22.61C197.166 22.61 197.738 22.47 198.298 22.19L198.543 27.09C196.979 27.8833 195.229 28.28 193.293 28.28ZM206.52 28.28C204.56 28.28 203.032 27.65 201.935 26.39C200.839 25.13 200.29 23.415 200.29 21.245V10.465H207.71V20.93C207.71 21.4667 207.85 21.8867 208.13 22.19C208.434 22.47 208.819 22.61 209.285 22.61C209.752 22.61 210.23 22.47 210.72 22.19L211.105 27.055C210.592 27.4517 209.915 27.755 209.075 27.965C208.259 28.175 207.407 28.28 206.52 28.28ZM204 7.84C202.904 7.84 201.97 7.50167 201.2 6.825C200.454 6.125 200.08 5.27333 200.08 4.27C200.08 3.26667 200.477 2.42667 201.27 1.75C202.064 1.07333 202.974 0.734998 204 0.734998C205.074 0.734998 205.995 1.085 206.765 1.785C207.559 2.485 207.955 3.31333 207.955 4.27C207.955 5.29667 207.559 6.14833 206.765 6.825C205.972 7.50167 205.05 7.84 204 7.84ZM213.144 10.71H220.179V14.28C220.972 12.9033 221.87 11.8883 222.874 11.235C223.9 10.5583 225.114 10.22 226.514 10.22C227.89 10.22 229.08 10.57 230.084 11.27C231.11 11.9467 231.88 12.8683 232.394 14.035C233.887 11.4917 236.057 10.22 238.904 10.22C240.257 10.22 241.435 10.5817 242.439 11.305C243.465 12.0283 244.259 13.0783 244.819 14.455C245.379 15.8083 245.659 17.4067 245.659 19.25V28H238.274V19.25C238.274 18.06 238.064 17.1617 237.644 16.555C237.247 15.9483 236.687 15.645 235.964 15.645C235.17 15.645 234.482 15.9833 233.899 16.66C233.339 17.3367 233.059 18.1533 233.059 19.11V28H225.744V19.25C225.744 18.06 225.534 17.1617 225.114 16.555C224.717 15.9483 224.145 15.645 223.399 15.645C222.605 15.645 221.929 15.9833 221.369 16.66C220.809 17.3367 220.529 18.1533 220.529 19.11V28H213.144V10.71ZM258.131 28.28C256.195 28.28 254.468 27.895 252.951 27.125C251.458 26.3317 250.291 25.2583 249.451 23.905C248.611 22.5283 248.191 20.9767 248.191 19.25C248.191 17.4767 248.623 15.9017 249.486 14.525C250.35 13.1483 251.516 12.0867 252.986 11.34C254.456 10.5933 256.09 10.22 257.886 10.22C259.613 10.22 261.083 10.605 262.296 11.375C263.533 12.1217 264.455 13.1483 265.061 14.455C265.668 15.7383 265.971 17.185 265.971 18.795C265.971 19.215 265.948 19.5183 265.901 19.705L255.401 21.07C255.681 21.8867 256.136 22.4817 256.766 22.855C257.396 23.205 258.225 23.38 259.251 23.38C260.838 23.38 262.553 22.9717 264.396 22.155L265.271 26.845C263.101 27.8017 260.721 28.28 258.131 28.28ZM260.546 16.66C260.173 15.19 259.286 14.455 257.886 14.455C257.046 14.455 256.381 14.77 255.891 15.4C255.401 16.03 255.145 16.8467 255.121 17.85L260.546 16.66ZM268.515 10.71H275.55V14.28C276.903 11.5733 279.05 10.22 281.99 10.22C284.23 10.22 285.98 11.025 287.24 12.635C288.523 14.2217 289.165 16.4267 289.165 19.25V28H281.815V18.515C281.815 17.5117 281.593 16.7417 281.15 16.205C280.73 15.6683 280.135 15.4 279.365 15.4C278.805 15.4 278.256 15.5867 277.72 15.96C277.183 16.31 276.74 16.8233 276.39 17.5C276.063 18.1767 275.9 18.9467 275.9 19.81V28H268.515V10.71ZM298.598 28.28C296.148 28.28 294.001 27.9183 292.158 27.195L292.963 23.03C294.643 23.6367 296.276 23.94 297.863 23.94C299.03 23.94 299.613 23.6133 299.613 22.96C299.613 22.6333 299.438 22.365 299.088 22.155C298.761 21.945 298.131 21.7583 297.198 21.595C295.261 21.2217 293.861 20.5917 292.998 19.705C292.158 18.8183 291.738 17.5583 291.738 15.925C291.831 14.0817 292.566 12.67 293.943 11.69C295.32 10.71 297.198 10.22 299.578 10.22C300.791 10.22 301.83 10.3017 302.693 10.465C303.58 10.605 304.385 10.85 305.108 11.2L304.373 15.365C303.696 15.1083 302.95 14.91 302.133 14.77C301.34 14.63 300.675 14.56 300.138 14.56C299.345 14.56 298.796 14.6417 298.493 14.805C298.19 14.9683 298.038 15.19 298.038 15.47C298.038 15.9833 298.621 16.345 299.788 16.555C301.911 16.9283 303.498 17.5817 304.548 18.515C305.598 19.4483 306.123 20.72 306.123 22.33C306.123 24.1733 305.47 25.6317 304.163 26.705C302.88 27.755 301.025 28.28 298.598 28.28ZM317.775 28.28C315.838 28.28 314.112 27.895 312.595 27.125C311.102 26.3317 309.935 25.2583 309.095 23.905C308.255 22.5283 307.835 20.9767 307.835 19.25C307.835 17.4767 308.267 15.9017 309.13 14.525C309.993 13.1483 311.16 12.0867 312.63 11.34C314.1 10.5933 315.733 10.22 317.53 10.22C319.257 10.22 320.727 10.605 321.94 11.375C323.177 12.1217 324.098 13.1483 324.705 14.455C325.312 15.7383 325.615 17.185 325.615 18.795C325.615 19.215 325.592 19.5183 325.545 19.705L315.045 21.07C315.325 21.8867 315.78 22.4817 316.41 22.855C317.04 23.205 317.868 23.38 318.895 23.38C320.482 23.38 322.197 22.9717 324.04 22.155L324.915 26.845C322.745 27.8017 320.365 28.28 317.775 28.28ZM320.19 16.66C319.817 15.19 318.93 14.455 317.53 14.455C316.69 14.455 316.025 14.77 315.535 15.4C315.045 16.03 314.788 16.8467 314.765 17.85L320.19 16.66ZM334.213 28.28C331.763 28.28 329.617 27.9183 327.773 27.195L328.578 23.03C330.258 23.6367 331.892 23.94 333.478 23.94C334.645 23.94 335.228 23.6133 335.228 22.96C335.228 22.6333 335.053 22.365 334.703 22.155C334.377 21.945 333.747 21.7583 332.813 21.595C330.877 21.2217 329.477 20.5917 328.613 19.705C327.773 18.8183 327.353 17.5583 327.353 15.925C327.447 14.0817 328.182 12.67 329.558 11.69C330.935 10.71 332.813 10.22 335.193 10.22C336.407 10.22 337.445 10.3017 338.308 10.465C339.195 10.605 340 10.85 340.723 11.2L339.988 15.365C339.312 15.1083 338.565 14.91 337.748 14.77C336.955 14.63 336.29 14.56 335.753 14.56C334.96 14.56 334.412 14.6417 334.108 14.805C333.805 14.9683 333.653 15.19 333.653 15.47C333.653 15.9833 334.237 16.345 335.403 16.555C337.527 16.9283 339.113 17.5817 340.163 18.515C341.213 19.4483 341.738 20.72 341.738 22.33C341.738 24.1733 341.085 25.6317 339.778 26.705C338.495 27.755 336.64 28.28 334.213 28.28Z" fill="#FFB91D"/>
</svg>
