<svg width="242" height="56" viewBox="0 0 242 56" fill="none" xmlns="http://www.w3.org/2000/svg">
<path d="M9.415 25.28C7.36167 25.28 5.76333 24.6967 4.62 23.53C3.47667 22.34 2.905 20.7067 2.905 18.63V11.805H0.665V7.465H3.43L6.685 0.849998H10.22V7.465H14.28V11.805H10.22V17.755C10.22 18.3383 10.4067 18.7933 10.78 19.12C11.1533 19.4467 11.6783 19.61 12.355 19.61C12.985 19.61 13.5567 19.47 14.07 19.19L14.35 24.09C13.7667 24.44 13.0083 24.7317 12.075 24.965C11.165 25.175 10.2783 25.28 9.415 25.28ZM24.3532 25.28C22.8365 25.28 21.4132 24.8833 20.0832 24.09C18.7765 23.2733 17.7265 22.1767 16.9332 20.8C16.1398 19.4 15.7432 17.8483 15.7432 16.145C15.7432 14.465 16.1398 12.9483 16.9332 11.595C17.7265 10.2183 18.7882 9.145 20.1182 8.375C21.4482 7.605 22.8598 7.22 24.3532 7.22C25.5665 7.22 26.6865 7.55833 27.7132 8.235C28.7632 8.91167 29.5565 9.92667 30.0932 11.28V7.22H37.4432V25H30.0932V21.745C28.9265 24.1017 27.0132 25.28 24.3532 25.28ZM26.6282 19.75C27.5615 19.75 28.3548 19.4233 29.0082 18.77C29.6848 18.0933 30.0465 17.3 30.0932 16.39V16.11C30.0465 15.1767 29.6732 14.3833 28.9732 13.73C28.2965 13.0767 27.5148 12.75 26.6282 12.75C25.6482 12.75 24.8082 13.1 24.1082 13.8C23.4315 14.4767 23.0932 15.2933 23.0932 16.25C23.0932 17.23 23.4432 18.0583 24.1432 18.735C24.8432 19.4117 25.6715 19.75 26.6282 19.75ZM40.9883 7.71H48.0233V11.28C48.8166 9.90333 49.7149 8.88833 50.7183 8.235C51.7449 7.55833 52.9583 7.22 54.3583 7.22C55.7349 7.22 56.9249 7.57 57.9283 8.27C58.9549 8.94667 59.7249 9.86833 60.2383 11.035C61.7316 8.49167 63.9016 7.22 66.7483 7.22C68.1016 7.22 69.2799 7.58167 70.2833 8.305C71.3099 9.02833 72.1033 10.0783 72.6633 11.455C73.2233 12.8083 73.5033 14.4067 73.5033 16.25V25H66.1183V16.25C66.1183 15.06 65.9083 14.1617 65.4883 13.555C65.0916 12.9483 64.5316 12.645 63.8083 12.645C63.0149 12.645 62.3266 12.9833 61.7433 13.66C61.1833 14.3367 60.9033 15.1533 60.9033 16.11V25H53.5883V16.25C53.5883 15.06 53.3783 14.1617 52.9583 13.555C52.5616 12.9483 51.9899 12.645 51.2433 12.645C50.4499 12.645 49.7733 12.9833 49.2133 13.66C48.6533 14.3367 48.3733 15.1533 48.3733 16.11V25H40.9883V7.71ZM84.6461 25.28C83.1295 25.28 81.7061 24.8833 80.3761 24.09C79.0695 23.2733 78.0195 22.1767 77.2261 20.8C76.4328 19.4 76.0361 17.8483 76.0361 16.145C76.0361 14.465 76.4328 12.9483 77.2261 11.595C78.0195 10.2183 79.0811 9.145 80.4111 8.375C81.7411 7.605 83.1528 7.22 84.6461 7.22C85.8595 7.22 86.9795 7.55833 88.0061 8.235C89.0561 8.91167 89.8495 9.92667 90.3861 11.28V7.22H97.7361V25H90.3861V21.745C89.2195 24.1017 87.3061 25.28 84.6461 25.28ZM86.9211 19.75C87.8545 19.75 88.6478 19.4233 89.3011 18.77C89.9778 18.0933 90.3395 17.3 90.3861 16.39V16.11C90.3395 15.1767 89.9661 14.3833 89.2661 13.73C88.5895 13.0767 87.8078 12.75 86.9211 12.75C85.9411 12.75 85.1011 13.1 84.4011 13.8C83.7245 14.4767 83.3861 15.2933 83.3861 16.25C83.3861 17.23 83.7361 18.0583 84.4361 18.735C85.1361 19.4117 85.9645 19.75 86.9211 19.75ZM107.441 25.28C105.458 25.28 103.918 24.6617 102.821 23.425C101.748 22.165 101.211 20.45 101.211 18.28V1.935L108.596 0.849998V17.755C108.596 18.4083 108.748 18.8867 109.051 19.19C109.378 19.47 109.938 19.61 110.731 19.61C111.315 19.61 111.886 19.47 112.446 19.19L112.691 24.09C111.128 24.8833 109.378 25.28 107.441 25.28ZM123.574 25.28C121.637 25.28 119.91 24.895 118.394 24.125C116.9 23.3317 115.734 22.2583 114.894 20.905C114.054 19.5283 113.634 17.9767 113.634 16.25C113.634 14.4767 114.065 12.9017 114.929 11.525C115.792 10.1483 116.959 9.08667 118.429 8.34C119.899 7.59333 121.532 7.22 123.329 7.22C125.055 7.22 126.525 7.605 127.739 8.375C128.975 9.12167 129.897 10.1483 130.504 11.455C131.11 12.7383 131.414 14.185 131.414 15.795C131.414 16.215 131.39 16.5183 131.344 16.705L120.844 18.07C121.124 18.8867 121.579 19.4817 122.209 19.855C122.839 20.205 123.667 20.38 124.694 20.38C126.28 20.38 127.995 19.9717 129.839 19.155L130.714 23.845C128.544 24.8017 126.164 25.28 123.574 25.28ZM125.989 13.66C125.615 12.19 124.729 11.455 123.329 11.455C122.489 11.455 121.824 11.77 121.334 12.4C120.844 13.03 120.587 13.8467 120.564 14.85L125.989 13.66ZM140.012 25.28C137.562 25.28 135.415 24.9183 133.572 24.195L134.377 20.03C136.057 20.6367 137.69 20.94 139.277 20.94C140.444 20.94 141.027 20.6133 141.027 19.96C141.027 19.6333 140.852 19.365 140.502 19.155C140.175 18.945 139.545 18.7583 138.612 18.595C136.675 18.2217 135.275 17.5917 134.412 16.705C133.572 15.8183 133.152 14.5583 133.152 12.925C133.245 11.0817 133.98 9.67 135.357 8.69C136.734 7.71 138.612 7.22 140.992 7.22C142.205 7.22 143.244 7.30167 144.107 7.465C144.994 7.605 145.799 7.85 146.522 8.2L145.787 12.365C145.11 12.1083 144.364 11.91 143.547 11.77C142.754 11.63 142.089 11.56 141.552 11.56C140.759 11.56 140.21 11.6417 139.907 11.805C139.604 11.9683 139.452 12.19 139.452 12.47C139.452 12.9833 140.035 13.345 141.202 13.555C143.325 13.9283 144.912 14.5817 145.962 15.515C147.012 16.4483 147.537 17.72 147.537 19.33C147.537 21.1733 146.884 22.6317 145.577 23.705C144.294 24.755 142.439 25.28 140.012 25.28ZM199.184 55.21C197.947 55.21 196.979 54.8717 196.279 54.195C195.579 53.5183 195.229 52.6667 195.229 51.64C195.229 50.59 195.591 49.7383 196.314 49.085C197.037 48.4317 197.994 48.105 199.184 48.105C200.351 48.105 201.296 48.455 202.019 49.155C202.742 49.8317 203.104 50.66 203.104 51.64C203.104 52.7367 202.766 53.6117 202.089 54.265C201.412 54.895 200.444 55.21 199.184 55.21ZM214.379 55.28C212.513 55.28 210.856 54.9067 209.409 54.16C207.986 53.39 206.866 52.3167 206.049 50.94C205.256 49.5633 204.859 48 204.859 46.25C204.859 44.57 205.279 43.0417 206.119 41.665C206.959 40.2883 208.103 39.2033 209.549 38.41C210.996 37.6167 212.606 37.22 214.379 37.22C216.643 37.22 218.428 37.6867 219.734 38.62L219.069 43.275C217.739 42.8783 216.643 42.68 215.779 42.68C214.659 42.68 213.773 43.0067 213.119 43.66C212.466 44.29 212.139 45.1533 212.139 46.25C212.139 47.3467 212.466 48.2217 213.119 48.875C213.773 49.5283 214.636 49.855 215.709 49.855C216.643 49.855 217.739 49.6567 218.999 49.26L219.664 54.16C218.871 54.5567 218.066 54.8367 217.249 55C216.433 55.1867 215.476 55.28 214.379 55.28ZM231.243 55.28C229.283 55.28 227.533 54.895 225.993 54.125C224.476 53.355 223.286 52.2933 222.423 50.94C221.583 49.5633 221.163 47.9883 221.163 46.215C221.163 44.4417 221.595 42.8783 222.458 41.525C223.321 40.1483 224.511 39.0867 226.028 38.34C227.568 37.5933 229.318 37.22 231.278 37.22C233.261 37.22 235.011 37.605 236.528 38.375C238.068 39.1217 239.258 40.1717 240.098 41.525C240.938 42.8783 241.358 44.4417 241.358 46.215C241.358 48.0117 240.926 49.5983 240.063 50.975C239.223 52.3283 238.033 53.39 236.493 54.16C234.976 54.9067 233.226 55.28 231.243 55.28ZM231.313 50.03C232.27 50.03 233.051 49.68 233.658 48.98C234.288 48.2567 234.603 47.335 234.603 46.215C234.603 45.095 234.288 44.185 233.658 43.485C233.051 42.7617 232.27 42.4 231.313 42.4C230.356 42.4 229.563 42.7617 228.933 43.485C228.326 44.185 228.023 45.095 228.023 46.215C228.023 47.335 228.326 48.2567 228.933 48.98C229.563 49.68 230.356 50.03 231.313 50.03Z" fill="#FCFEE2"/>
<path d="M9.415 55.28C7.36167 55.28 5.76333 54.6967 4.62 53.53C3.47667 52.34 2.905 50.7067 2.905 48.63V41.805H0.665V37.465H3.43L6.685 30.85H10.22V37.465H14.28V41.805H10.22V47.755C10.22 48.3383 10.4067 48.7933 10.78 49.12C11.1533 49.4467 11.6783 49.61 12.355 49.61C12.985 49.61 13.5567 49.47 14.07 49.19L14.35 54.09C13.7667 54.44 13.0083 54.7317 12.075 54.965C11.165 55.175 10.2783 55.28 9.415 55.28ZM25.8232 55.28C23.8632 55.28 22.1132 54.895 20.5732 54.125C19.0565 53.355 17.8665 52.2933 17.0032 50.94C16.1632 49.5633 15.7432 47.9883 15.7432 46.215C15.7432 44.4417 16.1748 42.8783 17.0382 41.525C17.9015 40.1483 19.0915 39.0867 20.6082 38.34C22.1482 37.5933 23.8982 37.22 25.8582 37.22C27.8415 37.22 29.5915 37.605 31.1082 38.375C32.6482 39.1217 33.8382 40.1717 34.6782 41.525C35.5182 42.8783 35.9382 44.4417 35.9382 46.215C35.9382 48.0117 35.5065 49.5983 34.6432 50.975C33.8032 52.3283 32.6132 53.39 31.0732 54.16C29.5565 54.9067 27.8065 55.28 25.8232 55.28ZM25.8932 50.03C26.8498 50.03 27.6315 49.68 28.2382 48.98C28.8682 48.2567 29.1832 47.335 29.1832 46.215C29.1832 45.095 28.8682 44.185 28.2382 43.485C27.6315 42.7617 26.8498 42.4 25.8932 42.4C24.9365 42.4 24.1432 42.7617 23.5132 43.485C22.9065 44.185 22.6032 45.095 22.6032 46.215C22.6032 47.335 22.9065 48.2567 23.5132 48.98C24.1432 49.68 24.9365 50.03 25.8932 50.03ZM44.7215 55.28C42.7382 55.28 41.1982 54.6617 40.1015 53.425C39.0282 52.165 38.4915 50.45 38.4915 48.28V31.935L45.8765 30.85V47.755C45.8765 48.4083 46.0282 48.8867 46.3315 49.19C46.6582 49.47 47.2182 49.61 48.0115 49.61C48.5949 49.61 49.1665 49.47 49.7265 49.19L49.9715 54.09C48.4082 54.8833 46.6582 55.28 44.7215 55.28ZM57.9491 55.28C55.9891 55.28 54.4607 54.65 53.3641 53.39C52.2674 52.13 51.7191 50.415 51.7191 48.245V37.465H59.1391V47.93C59.1391 48.4667 59.2791 48.8867 59.5591 49.19C59.8624 49.47 60.2474 49.61 60.7141 49.61C61.1807 49.61 61.6591 49.47 62.1491 49.19L62.5341 54.055C62.0207 54.4517 61.3441 54.755 60.5041 54.965C59.6874 55.175 58.8357 55.28 57.9491 55.28ZM55.4291 34.84C54.3324 34.84 53.3991 34.5017 52.6291 33.825C51.8824 33.125 51.5091 32.2733 51.5091 31.27C51.5091 30.2667 51.9057 29.4267 52.6991 28.75C53.4924 28.0733 54.4024 27.735 55.4291 27.735C56.5024 27.735 57.4241 28.085 58.1941 28.785C58.9874 29.485 59.3841 30.3133 59.3841 31.27C59.3841 32.2967 58.9874 33.1483 58.1941 33.825C57.4007 34.5017 56.4791 34.84 55.4291 34.84ZM64.5723 37.71H71.6073V41.28C72.4006 39.9033 73.2989 38.8883 74.3023 38.235C75.3289 37.5583 76.5423 37.22 77.9423 37.22C79.3189 37.22 80.5089 37.57 81.5123 38.27C82.5389 38.9467 83.3089 39.8683 83.8223 41.035C85.3156 38.4917 87.4856 37.22 90.3323 37.22C91.6856 37.22 92.8639 37.5817 93.8673 38.305C94.8939 39.0283 95.6873 40.0783 96.2473 41.455C96.8073 42.8083 97.0873 44.4067 97.0873 46.25V55H89.7023V46.25C89.7023 45.06 89.4923 44.1617 89.0723 43.555C88.6756 42.9483 88.1156 42.645 87.3923 42.645C86.5989 42.645 85.9106 42.9833 85.3273 43.66C84.7673 44.3367 84.4873 45.1533 84.4873 46.11V55H77.1723V46.25C77.1723 45.06 76.9623 44.1617 76.5423 43.555C76.1456 42.9483 75.5739 42.645 74.8273 42.645C74.0339 42.645 73.3573 42.9833 72.7973 43.66C72.2373 44.3367 71.9573 45.1533 71.9573 46.11V55H64.5723V37.71ZM109.56 55.28C107.623 55.28 105.897 54.895 104.38 54.125C102.887 53.3317 101.72 52.2583 100.88 50.905C100.04 49.5283 99.6201 47.9767 99.6201 46.25C99.6201 44.4767 100.052 42.9017 100.915 41.525C101.778 40.1483 102.945 39.0867 104.415 38.34C105.885 37.5933 107.518 37.22 109.315 37.22C111.042 37.22 112.512 37.605 113.725 38.375C114.962 39.1217 115.883 40.1483 116.49 41.455C117.097 42.7383 117.4 44.185 117.4 45.795C117.4 46.215 117.377 46.5183 117.33 46.705L106.83 48.07C107.11 48.8867 107.565 49.4817 108.195 49.855C108.825 50.205 109.653 50.38 110.68 50.38C112.267 50.38 113.982 49.9717 115.825 49.155L116.7 53.845C114.53 54.8017 112.15 55.28 109.56 55.28ZM111.975 43.66C111.602 42.19 110.715 41.455 109.315 41.455C108.475 41.455 107.81 41.77 107.32 42.4C106.83 43.03 106.573 43.8467 106.55 44.85L111.975 43.66ZM119.943 37.71H126.978V41.28C128.332 38.5733 130.478 37.22 133.418 37.22C135.658 37.22 137.408 38.025 138.668 39.635C139.952 41.2217 140.593 43.4267 140.593 46.25V55H133.243V45.515C133.243 44.5117 133.022 43.7417 132.578 43.205C132.158 42.6683 131.563 42.4 130.793 42.4C130.233 42.4 129.685 42.5867 129.148 42.96C128.612 43.31 128.168 43.8233 127.818 44.5C127.492 45.1767 127.328 45.9467 127.328 46.81V55H119.943V37.71ZM150.027 55.28C147.577 55.28 145.43 54.9183 143.587 54.195L144.392 50.03C146.072 50.6367 147.705 50.94 149.292 50.94C150.458 50.94 151.042 50.6133 151.042 49.96C151.042 49.6333 150.867 49.365 150.517 49.155C150.19 48.945 149.56 48.7583 148.627 48.595C146.69 48.2217 145.29 47.5917 144.427 46.705C143.587 45.8183 143.167 44.5583 143.167 42.925C143.26 41.0817 143.995 39.67 145.372 38.69C146.748 37.71 148.627 37.22 151.007 37.22C152.22 37.22 153.258 37.3017 154.122 37.465C155.008 37.605 155.813 37.85 156.537 38.2L155.802 42.365C155.125 42.1083 154.378 41.91 153.562 41.77C152.768 41.63 152.103 41.56 151.567 41.56C150.773 41.56 150.225 41.6417 149.922 41.805C149.618 41.9683 149.467 42.19 149.467 42.47C149.467 42.9833 150.05 43.345 151.217 43.555C153.34 43.9283 154.927 44.5817 155.977 45.515C157.027 46.4483 157.552 47.72 157.552 49.33C157.552 51.1733 156.898 52.6317 155.592 53.705C154.308 54.755 152.453 55.28 150.027 55.28ZM169.204 55.28C167.267 55.28 165.54 54.895 164.024 54.125C162.53 53.3317 161.364 52.2583 160.524 50.905C159.684 49.5283 159.264 47.9767 159.264 46.25C159.264 44.4767 159.695 42.9017 160.559 41.525C161.422 40.1483 162.589 39.0867 164.059 38.34C165.529 37.5933 167.162 37.22 168.959 37.22C170.685 37.22 172.155 37.605 173.369 38.375C174.605 39.1217 175.527 40.1483 176.134 41.455C176.74 42.7383 177.044 44.185 177.044 45.795C177.044 46.215 177.02 46.5183 176.974 46.705L166.474 48.07C166.754 48.8867 167.209 49.4817 167.839 49.855C168.469 50.205 169.297 50.38 170.324 50.38C171.91 50.38 173.625 49.9717 175.469 49.155L176.344 53.845C174.174 54.8017 171.794 55.28 169.204 55.28ZM171.619 43.66C171.245 42.19 170.359 41.455 168.959 41.455C168.119 41.455 167.454 41.77 166.964 42.4C166.474 43.03 166.217 43.8467 166.194 44.85L171.619 43.66ZM185.642 55.28C183.192 55.28 181.045 54.9183 179.202 54.195L180.007 50.03C181.687 50.6367 183.32 50.94 184.907 50.94C186.074 50.94 186.657 50.6133 186.657 49.96C186.657 49.6333 186.482 49.365 186.132 49.155C185.805 48.945 185.175 48.7583 184.242 48.595C182.305 48.2217 180.905 47.5917 180.042 46.705C179.202 45.8183 178.782 44.5583 178.782 42.925C178.875 41.0817 179.61 39.67 180.987 38.69C182.364 37.71 184.242 37.22 186.622 37.22C187.835 37.22 188.874 37.3017 189.737 37.465C190.624 37.605 191.429 37.85 192.152 38.2L191.417 42.365C190.74 42.1083 189.994 41.91 189.177 41.77C188.384 41.63 187.719 41.56 187.182 41.56C186.389 41.56 185.84 41.6417 185.537 41.805C185.234 41.9683 185.082 42.19 185.082 42.47C185.082 42.9833 185.665 43.345 186.832 43.555C188.955 43.9283 190.542 44.5817 191.592 45.515C192.642 46.4483 193.167 47.72 193.167 49.33C193.167 51.1733 192.514 52.6317 191.207 53.705C189.924 54.755 188.069 55.28 185.642 55.28Z" fill="#FFB91D"/>
</svg>
